<svg version="1.2" xmlns="http://www.w3.org/2000/svg" viewBox="0 0 2743 2667" width="900" height="875">
	<title>vecteezy_cloud-computing-modern-flat-concept-for-web-banner-design_5879539-ai</title>
	<style>
		.s0 { fill: #ecf2fa } 
		.s1 { fill: #101c3a } 
		.s2 { fill: #390d9f } 
		.s3 { fill: #cfe0fa } 
		.s4 { fill: #ffffff } 
		.s5 { fill: #fc721a } 
		.s6 { fill: #2b173f } 
		.s7 { fill: #425fec } 
		.s8 { fill: #091022 } 
		.s9 { fill: #7109b5 } 
		.s10 { fill: #cbcbcb } 
		.s11 { fill: #f8a3a2 } 
		.s12 { fill: #00b5f6 } 
		.s13 { fill: #131313 } 
	</style>
	<g id="_Artboards_">
	</g>
	<g id="Layer 1">
		<g id="&lt;Group&gt;">
			<g id="&lt;Group&gt;">
				<g id="&lt;Group&gt;">
					<g id="&lt;Group&gt;">
						<path id="&lt;Path&gt;" class="s0" d="m1469.8 608.6c-343 72.5-291.9 473.2-882.6 698.1-633.1 241-249.6 1150.3 470.6 1202.1 716.9 51.5 1047.6-271.7 1121.2-886 55.3-462-199.3-1121.9-709.2-1014.2z"/>
					</g>
					<g id="&lt;Group&gt;">
						<path id="&lt;Path&gt;" class="s0" d="m663.5 1224.3c153.8-52.8 387.1-299.9 302.7-576.7-84.3-276.7-757 732.8-302.7 576.7z"/>
					</g>
				</g>
				<g id="&lt;Group&gt;">
					<g id="&lt;Group&gt;">
						<path id="&lt;Path&gt;" class="s1" d="m2001.5 2513.9h-680.4c-20.2 0-34.3-16.5-31.5-36.7l65.3-497.5c2.9-20.2 21.6-36.6 41.8-36.6h680.4c20.2 0 34.3 16.4 31.5 36.6l-65.3 497.5c-2.9 20.2-21.6 36.7-41.8 36.7z"/>
						<path id="&lt;Path&gt;" class="s2" d="m1978.9 2479.3h-680.3c-20.3 0-34.4-16.4-31.5-36.7l65.3-462.9c2.8-20.2 21.6-36.6 41.8-36.6h680.4c20.2 0 34.3 16.4 31.5 36.6l-66.5 468.2c-2.8 20.3-20.4 31.4-40.7 31.4z"/>
						<g id="&lt;Group&gt;">
							<path id="&lt;Path&gt;" class="s3" d="m1955.1 2459.6h-627.2c-18.6 0-31.6-15.1-29-33.7l60.6-429.4c2.6-18.7 19.9-33.8 38.5-33.8h627.2c18.6 0 31.6 15.1 29 33.8l-60.6 429.4c-2.6 18.6-19.8 33.7-38.5 33.7z"/>
						</g>
						<g id="&lt;Group&gt;">
							<path id="&lt;Path&gt;" class="s1" d="m1675.4 2129.5l-8.2-37.4c-1.7-7.9-8.6-13.4-16.9-13.4h-221c-10.3 0-19.1 8.3-19.9 18.6l-3.2 45.6-1.8 25.8-21.8 312.3c-0.7 10.3 7 18.6 17.3 18.6h514.2c10.2 0 19.1-8.3 19.8-18.6l22.4-319.5c0.7-10.3-7-18.6-17.3-18.6h-246.7c-8.3 0-15.2-5.4-16.9-13.4z"/>
							<g id="&lt;Group&gt;">
								<g id="&lt;Group&gt;">
									<path id="&lt;Path&gt;" class="s4" d="m1854 2439l-0.6-506.8-416.9 0.5 0.5 506.7z"/>
								</g>
								<g id="&lt;Group&gt;">
									<g id="&lt;Group&gt;">
										<path id="&lt;Path&gt;" class="s1" d="m1669.4 2043.7l-171.2 0.2v-12.9l171.2-0.2z"/>
									</g>
									<g id="&lt;Group&gt;">
										<path id="&lt;Path&gt;" class="s1" d="m1583.9 2080.7l-85.6 0.1-0.1-13 85.6-0.1z"/>
									</g>
									<g id="&lt;Group&gt;">
										<path id="&lt;Path&gt;" class="s1" d="m1694 2080.6l-85.6 0.1v-13l85.6-0.1z"/>
									</g>
									<g id="&lt;Group&gt;">
										<path id="&lt;Path&gt;" class="s1" d="m1805.3 2080.4l-85.6 0.1v-12.9l85.6-0.1z"/>
									</g>
									<g id="&lt;Group&gt;">
										<path id="&lt;Path&gt;" class="s1" d="m1805.3 2043.6l-119.3 0.1v-12.9l119.2-0.2z"/>
									</g>
									<g id="&lt;Group&gt;">
										<path id="&lt;Path&gt;" class="s1" d="m1805.3 2116.1l-171.2 0.2v-13l171.2-0.2z"/>
									</g>
									<g id="&lt;Group&gt;">
										<path id="&lt;Path&gt;" class="s1" d="m1617.5 2116.3l-119.2 0.1v-12.9l119.2-0.2z"/>
									</g>
								</g>
								<g id="&lt;Group&gt;">
									<g id="&lt;Group&gt;">
										<path id="&lt;Path&gt;" class="s1" d="m1669.6 2151.6l-171.3 0.2v-13l171.2-0.2z"/>
									</g>
									<g id="&lt;Group&gt;">
										<path id="&lt;Path&gt;" class="s1" d="m1584 2188.6l-85.6 0.1v-13l85.6-0.1z"/>
									</g>
									<g id="&lt;Group&gt;">
										<path id="&lt;Path&gt;" class="s1" d="m1694.1 2188.4l-85.6 0.1v-12.9l85.6-0.1z"/>
									</g>
									<g id="&lt;Group&gt;">
										<path id="&lt;Path&gt;" class="s1" d="m1805.4 2188.3l-85.6 0.1v-13l85.6-0.1z"/>
									</g>
									<g id="&lt;Group&gt;">
										<path id="&lt;Path&gt;" class="s1" d="m1805.4 2151.4l-119.2 0.2-0.1-13 119.3-0.1z"/>
									</g>
									<g id="&lt;Group&gt;">
										<path id="&lt;Path&gt;" class="s1" d="m1805.5 2224l-171.2 0.2-0.1-13 171.3-0.2z"/>
									</g>
									<g id="&lt;Group&gt;">
										<path id="&lt;Path&gt;" class="s1" d="m1617.7 2224.2l-119.3 0.1v-13l119.2-0.1z"/>
									</g>
								</g>
							</g>
							<path id="&lt;Path&gt;" class="s5" d="m1572.8 2142.1l-17.4-37.4c-3.7-7.9-12-13.4-20.2-13.4h-221c-10.3 0-17.1 8.3-15.3 18.6l8 45.6 4.6 25.7 55 312.4c1.8 10.2 11.6 18.6 21.9 18.6h514.2c10.2 0 17.1-8.4 15.3-18.6l-56.4-319.5c-1.8-10.3-11.6-18.6-21.8-18.6h-246.7c-8.3 0-16.5-5.5-20.2-13.4z"/>
						</g>
						<g id="&lt;Group&gt;">
							<g id="&lt;Group&gt;">
								<path id="&lt;Path&gt;" class="s1" d="m1135.9 2457.1h-77.1v-13.1h77.1z"/>
							</g>
							<g id="&lt;Group&gt;">
								<path id="&lt;Path&gt;" class="s1" d="m1226.6 2457.1h-77.1v-13.1h77.1z"/>
							</g>
							<g id="&lt;Group&gt;">
								<path id="&lt;Path&gt;" class="s1" d="m1317.4 2457.1h-77.1v-13.1h77.1z"/>
							</g>
							<g id="&lt;Group&gt;">
								<path id="&lt;Path&gt;" class="s1" d="m1586.5 2457.1h-255.5v-13.1h255.5z"/>
							</g>
							<g id="&lt;Group&gt;">
								<path id="&lt;Path&gt;" class="s1" d="m1680.2 2457.1h-77.1v-13.1h77.1z"/>
							</g>
							<g id="&lt;Group&gt;">
								<path id="&lt;Path&gt;" class="s1" d="m1771 2457.1h-77.1v-13.1h77.1z"/>
							</g>
							<g id="&lt;Group&gt;">
								<path id="&lt;Path&gt;" class="s1" d="m1861.7 2457.1h-77.1v-13.1h77.1z"/>
							</g>
							<g id="&lt;Group&gt;">
								<path id="&lt;Path&gt;" class="s1" d="m1952.4 2457.1h-77.1v-13.1h77.1z"/>
							</g>
						</g>
						<g id="&lt;Group&gt;">
							<path id="&lt;Path&gt;" class="s1" d="m1978.3 2513.9h-924.4c-25.2 0-45.6-3.4-45.6-28.5v-28.3h1015.5v28.3c0 25.1-20.4 28.5-45.5 28.5z"/>
							<path id="&lt;Path&gt;" class="s2" d="m1988.5 2485.4h-979.2v-29h1008.2c0 16-13 29-29 29z"/>
						</g>
						<path id="&lt;Path&gt;" class="s1" d="m2018.1 2459.3l2.4-10.7 13.7 4.6-7.1 41.3-12 15.5-10.6 2.6c0 0-1.5 0.3-3.1 0.3-1.5 0.1-33.4 0-33.4 0 0 0 21-23 22.8-23 1.8 0 18.2-1.1 18.2-1.1l5-14.7 3.5-4.5z"/>
					</g>
				</g>
				<g id="&lt;Group&gt;">
					<g id="&lt;Group&gt;">
						<g id="&lt;Group&gt;">
							<path id="&lt;Path&gt;" class="s4" d="m2334.2 983.4v763.2c0 40-32.4 72.4-72.4 72.4h-1026.2c-40 0-72.4-32.4-72.4-72.4v-763.2c0-32.5 26.3-58.9 58.8-58.9h1053.4c32.5 0 58.8 26.4 58.8 58.9z"/>
							<g id="&lt;Group&gt;">
								<path id="&lt;Compound Path&gt;" fill-rule="evenodd" class="s3" d="m2261.8 1824.7h-1026.2c-43.1 0-78.1-35.1-78.1-78.1v-763.2c0-35.6 28.9-64.6 64.5-64.6h1053.4c35.6 0 64.5 29 64.5 64.6v763.2c0 43-35 78.1-78.1 78.1zm-1039.8-894.4c-29.2 0-53.1 23.8-53.1 53.1v763.2c0 36.7 29.9 66.6 66.7 66.6h1026.2c36.8 0 66.7-29.9 66.7-66.6v-763.2c0-29.3-23.9-53.1-53.1-53.1z"/>
							</g>
						</g>
					</g>
					<g id="&lt;Group&gt;">
						<g id="&lt;Group&gt;">
							<path id="&lt;Path&gt;" class="s6" d="m2205.9 957.3c-5 0-9.1 4-9.1 9.1 0 5 4.1 9.1 9.1 9.1 5 0 9.1-4.1 9.1-9.1 0-5.1-4.1-9.1-9.1-9.1z"/>
							<path id="&lt;Path&gt;" class="s7" d="m2244.3 957.3c-5 0-9.1 4-9.1 9.1 0 5 4.1 9.1 9.1 9.1 5.1 0 9.1-4.1 9.1-9.1 0-5.1-4-9.1-9.1-9.1z"/>
							<path id="&lt;Path&gt;" class="s5" d="m2282.8 957.3c-5.1 0-9.1 4-9.1 9.1 0 5 4 9.1 9.1 9.1 5 0 9.1-4.1 9.1-9.1 0-5.1-4.1-9.1-9.1-9.1z"/>
						</g>
					</g>
					<g id="&lt;Group&gt;">
						<path id="&lt;Path&gt;" class="s3" d="m2330.8 1031.6h-884.5v-11.5h884.5z"/>
					</g>
				</g>
				<g id="&lt;Group&gt;" style="opacity: .3">
					<path id="&lt;Compound Path&gt;" class="s8" d="m1843.3 1381.6c-12.8-17-14.6-38.7-34.7-50.3-16.7-9.5-25.2-19.9-33.9-29.3 18.5-13.6 44.4-39.1 56-62.1 9.6-19 7.4-33.5-1.1-27-19.6 14.5-82.1 49.6-101.8 71-0.1 0.1-0.3 0.3-0.4 0.6-16.4 12.3-47.3 79.3-49.1 94.3-2.6 22.3 40.9 36.7 28 90.6-0.6 0.6-72.5 162.8-97.8 211.5-9.7 16-19.5 32.1-28.8 48-12.4-6.8-25.3-13.9-38.2-20.8-4.3-13.1-98.1 67.4-105 54.3 0 0-156.7-104.1-273.3-149v133.2c0 40 32.4 72.4 72.4 72.4h539.2c10.8-135.2 14.6-311.4 14.6-311.4-7.2-49 21.2-49.1 38.8-67 17.5-18 28-42.1 15.1-59z"/>
				</g>
				<g id="&lt;Group&gt;" style="opacity: .3">
					<path id="&lt;Path&gt;" class="s8" d="m2112.5 1639.3h-755.7c-31.4 0-56.9-25.4-56.9-56.9v-284.4c0-31.4 25.5-56.9 56.9-56.9h755.7c31.4 0 56.9 25.5 56.9 56.9v284.4c0 31.5-25.5 56.9-56.9 56.9z"/>
				</g>
				<g id="&lt;Group&gt;">
					<path id="&lt;Path&gt;" class="s2" d="m851 472.5l-67.7-95.2 116.3-11z"/>
					<g id="&lt;Group&gt;">
						<g id="&lt;Group&gt;">
							<path id="&lt;Compound Path&gt;" fill-rule="evenodd" class="s1" d="m844 451.3l-70-98.6 120.3-11.4zm-65.7-96.6l65.3 91.9 46.9-102.5z"/>
						</g>
					</g>
				</g>
				<g id="&lt;Group&gt;">
					<path id="&lt;Path&gt;" class="s7" d="m436.1 1130.2l0.4 0.4 25.4-33-40.4-5.5-0.4 2.1c-1.7 13.3 3.6 27.2 15 36z"/>
				</g>
				<path id="&lt;Path&gt;" class="s5" d="m450.1 670.1c-1 4.8-5.6 8-10.5 7-4.8-0.9-7.9-5.6-7-10.4 1-4.9 5.7-8 10.5-7 4.8 0.9 7.9 5.6 7 10.4z"/>
				<path id="&lt;Path&gt;" class="s5" d="m2154 222.6c-0.9 4.8-5.6 7.9-10.4 7-4.8-1-8-5.7-7-10.5 0.9-4.8 5.6-8 10.4-7 4.9 1 8 5.6 7 10.5z"/>
				<path id="&lt;Path&gt;" class="s7" d="m908.4 779.2c-1 4.8-5.7 7.9-10.5 7-4.8-1-8-5.7-7-10.5 1-4.8 5.6-8 10.5-7 4.8 0.9 7.9 5.6 7 10.5z"/>
				<path id="&lt;Path&gt;" class="s9" d="m1296.3 271.2c-1.9 9.7-11.3 15.9-20.9 14-9.7-1.9-16-11.2-14-20.9 1.9-9.6 11.2-15.9 20.9-14 9.6 1.9 15.9 11.3 14 20.9z"/>
				<path id="&lt;Path&gt;" class="s5" d="m2509.1 348.5c-1.9 9.7-11.3 15.9-20.9 14-9.6-1.9-15.9-11.3-14-20.9 1.9-9.6 11.3-15.9 20.9-14 9.7 1.9 15.9 11.3 14 20.9z"/>
				<g id="&lt;Group&gt;">
					<g id="&lt;Group&gt;">
						<path id="&lt;Path&gt;" class="s1" d="m1576.8 1187.6h-14.8v-63.9c0-37.4 30.5-67.9 68-67.9 29.3 0 53.1-23.8 53.1-53.1v-237.9h14.8v237.9c0 37.4-30.5 67.9-67.9 67.9-29.4 0-53.2 23.8-53.2 53.1z"/>
					</g>
					<g id="&lt;Group&gt;">
						<path id="&lt;Path&gt;" class="s1" d="m1730.6 1187.6h-14.8v-63.9c0-37.4 30.5-67.9 67.9-67.9 29.4 0 53.2-23.8 53.2-53.1v-237.9h14.8v237.9c0 37.4-30.5 67.9-68 67.9-29.3 0-53.1 23.8-53.1 53.1z"/>
					</g>
					<path id="&lt;Path&gt;" class="s2" d="m1565.1 1144.1l10.7 0.1c5.8 0.1 10.7 4.4 11.7 10.1l9 54.5-54.2-0.9 10.8-54.1c1.1-5.7 6.2-9.8 12-9.7z"/>
					<path id="&lt;Path&gt;" class="s2" d="m1718.9 1144.1l10.7 0.1c5.8 0.1 10.7 4.4 11.7 10.1l9 54.5-54.2-0.9 10.8-54.1c1.1-5.7 6.2-9.8 12-9.7z"/>
					<path id="&lt;Path&gt;" class="s2" d="m1848.7 881.4l-10.6-0.2c-5.9-0.1-10.8-4.3-11.7-10.1l-9-54.5 54.1 0.9-10.8 54.2c-1.1 5.7-6.2 9.8-12 9.7z"/>
					<path id="&lt;Path&gt;" class="s2" d="m1694.9 881.4l-10.6-0.2c-5.9-0.1-10.8-4.3-11.7-10.1l-9-54.5 54.1 0.9-10.8 54.2c-1.1 5.7-6.2 9.8-12 9.7z"/>
				</g>
				<g id="&lt;Group&gt;">
					<path id="&lt;Path&gt;" class="s1" d="m2050.3 1571.7h-755.7c-31.4 0-56.9-25.5-56.9-56.9v-284.4c0-31.4 25.5-56.9 56.9-56.9h755.7c31.4 0 56.9 25.5 56.9 56.9v284.4c0 31.4-25.5 56.9-56.9 56.9z"/>
					<path id="&lt;Path&gt;" class="s2" d="m2074.9 1230.4v284.4c0 31.4-25.5 56.9-56.9 56.9h-755.7c-31.4 0-56.8-25.5-56.8-56.9v-284.4c0-31.4 25.4-56.9 56.8-56.9h755.7c31.4 0 56.9 25.5 56.9 56.9z"/>
					<g id="&lt;Group&gt;">
						<path id="&lt;Compound Path&gt;" fill-rule="evenodd" class="s4" d="m1908.6 1512h-536.9c-28 0-50.9-22.9-50.9-50.9 0-28.1 22.9-50.9 50.9-50.9h536.9c28.1 0 50.9 22.8 50.9 50.9 0 28-22.8 50.9-50.9 50.9zm-536.9-90.2c-21.7 0-39.3 17.6-39.3 39.3 0 21.7 17.6 39.3 39.3 39.3h536.9c21.7 0 39.4-17.6 39.4-39.3 0-21.7-17.7-39.3-39.4-39.3z"/>
						<path id="&lt;Compound Path&gt;" fill-rule="evenodd" class="s4" d="m1908.6 1335h-536.9c-28 0-50.9-22.9-50.9-50.9 0-28 22.9-50.9 50.9-50.9h536.9c28.1 0 50.9 22.9 50.9 50.9 0 28-22.8 50.9-50.9 50.9zm-536.9-90.2c-21.7 0-39.3 17.6-39.3 39.3 0 21.7 17.6 39.3 39.3 39.3h536.9c21.7 0 39.4-17.6 39.4-39.3 0-21.7-17.7-39.3-39.4-39.3z"/>
						<g id="&lt;Group&gt;">
							<path id="&lt;Compound Path&gt;" class="s4" d="m1439.3 1479.6l-8.5-6.6q4-4.6 8.4-8.7 1.8-1.7 2.2-2.2-1.4-0.2-8-1.8-4.8-1.2-6.3-1.8l3.3-9.9q7.4 3 13.2 6.6-1.4-9.2-1.4-15h10q0 4.1-1.5 15.1 1.1-0.4 4.9-2.2 5-2.3 9.3-3.9l3 10.2q-6.3 1.4-14.5 2.7l6.8 7.6q2 2.3 3.2 3.8l-8.6 5.7-7.6-12.6q-3.5 6.1-7.9 13z"/>
							<path id="&lt;Compound Path&gt;" class="s4" d="m1516.2 1479.6l-8.5-6.6q4-4.6 8.4-8.7 1.8-1.7 2.2-2.2-1.4-0.2-8-1.8-4.8-1.2-6.3-1.8l3.3-9.9q7.4 3 13.2 6.6-1.4-9.2-1.4-15h10q0 4.1-1.5 15.1 1.1-0.4 4.9-2.2 5-2.3 9.3-3.9l3 10.2q-6.3 1.4-14.5 2.7l6.8 7.6q2 2.3 3.2 3.8l-8.6 5.7-7.6-12.6q-3.5 6.1-7.9 13z"/>
							<path id="&lt;Compound Path&gt;" class="s4" d="m1593.1 1479.6l-8.5-6.6q4-4.6 8.4-8.7 1.8-1.7 2.2-2.2-1.4-0.2-8-1.8-4.8-1.2-6.3-1.8l3.3-9.9q7.4 3 13.2 6.6-1.4-9.2-1.4-15h10q0 4.1-1.5 15.1 1.1-0.4 4.9-2.2 5-2.3 9.3-3.9l3 10.2q-6.3 1.4-14.5 2.7l6.8 7.6q2 2.3 3.2 3.8l-8.6 5.7-7.6-12.6q-3.5 6.1-7.9 13z"/>
							<path id="&lt;Compound Path&gt;" class="s4" d="m1670 1479.6l-8.5-6.6q4-4.6 8.4-8.7 1.8-1.7 2.2-2.2-1.4-0.2-8-1.8-4.8-1.2-6.3-1.8l3.3-9.9q7.4 3 13.2 6.6-1.4-9.2-1.4-15h10q0 4.1-1.5 15.1 1.1-0.4 4.8-2.2 5.1-2.3 9.4-3.9l3 10.2q-6.3 1.4-14.5 2.7l6.8 7.6q2 2.3 3.2 3.8l-8.6 5.7-7.6-12.6q-3.5 6.1-7.9 13z"/>
							<path id="&lt;Compound Path&gt;" class="s4" d="m1746.9 1479.6l-8.5-6.6q4-4.6 8.4-8.7 1.8-1.7 2.2-2.2-1.4-0.2-8-1.8-4.8-1.2-6.3-1.8l3.3-9.9q7.4 3 13.2 6.6-1.4-9.2-1.4-15h10q0 4.1-1.5 15.1 1.1-0.4 4.8-2.2 5.1-2.3 9.4-3.9l3 10.2q-6.3 1.4-14.5 2.7l6.8 7.6q2 2.3 3.2 3.8l-8.6 5.7-7.6-12.6q-3.5 6.1-7.9 13z"/>
							<path id="&lt;Compound Path&gt;" class="s4" d="m1823.8 1479.6l-8.5-6.6q4-4.6 8.4-8.7 1.8-1.7 2.2-2.2-1.4-0.2-8-1.8-4.8-1.2-6.3-1.8l3.3-9.9q7.3 3 13.1 6.6-1.3-9.2-1.3-15h10q0 4.1-1.5 15.1 1.1-0.4 4.8-2.2 5.1-2.3 9.4-3.9l3 10.2q-6.3 1.4-14.5 2.7l6.8 7.6q2 2.3 3.2 3.8l-8.6 5.7-7.6-12.6q-3.5 6.1-7.9 13z"/>
						</g>
						<path id="&lt;Path&gt;" class="s4" d="m1868.3 1296.9h-458.9v-26h458.9z"/>
					</g>
				</g>
				<g id="&lt;Group&gt;" style="opacity: .3">
					<path id="&lt;Compound Path&gt;" class="s8" d="m1788 1381.6c-12.8-17-14.6-38.7-34.7-50.3-16.7-9.5-25.2-19.9-33.9-29.3 18.5-13.6 44.4-39.1 56-62.1 9.6-19 7.4-33.5-1.1-27-19.6 14.5-82.1 49.6-101.8 71-0.1 0.1-0.3 0.3-0.4 0.6-16.4 12.3-47.3 79.3-49.1 94.3-2.6 22.3 40.9 36.7 28 90.6-0.3 0.3-22.4 49.8-46.3 102.3h127.6c1.2-38.8 1.8-64.1 1.8-64.1-7.2-49 21.2-49.1 38.8-67 17.5-18 28-42.1 15.1-59z"/>
				</g>
				<g id="&lt;Group&gt;">
					<g id="&lt;Group&gt;">
						<path id="&lt;Path&gt;" class="s2" d="m2322.2 506.6c-16.3-0.6-32.1 1.3-47.3 5 1.5-8.3 2.6-16.7 2.9-25.4 3.6-102.5-76.5-188.6-179.1-192.2-47.3-1.7-91.1 14.6-124.9 42.7-38.5-97.2-131.6-167.5-242.8-171.5-149.7-5.3-275.5 111.8-280.8 261.6q-0.5 14 0.4 27.7c-25.9-14.4-55.3-23.2-86.9-24.3-106.6-3.8-196 79.5-199.8 186.1-3.8 106.5 79.5 196 186.1 199.8l976.9 34.7v-0.8c87.3-5.4 157.8-76.3 161-165.5 3.4-94.9-70.8-174.6-165.7-177.9z"/>
						<g id="&lt;Group&gt;">
							<path id="&lt;Path&gt;" class="s3" d="m2425.1 674.3c0 89.3-68 162.6-155 171.1v0.9h-977.6c-106.6 0-193-86.5-193-193.1 0-106.6 86.4-193.1 193-193.1q1.8 0 3.4 0.1h0.1c30.3 0.5 58.9 8.1 84.3 21.1q-1.4-13.6-1.5-27.6 0-11.5 1-22.6c11.5-139.4 128.2-248.8 270.4-248.8q8.6 0 17.1 0.5c103.9 6.5 191.9 71.4 231.6 162.2 27.2-24.2 61.5-40.7 99.4-45.6q11.8-1.5 24-1.5c17.4 0 34.2 2.3 50.1 6.8 78.3 21.9 135.7 93.7 135.7 178.9 0 8.7-0.9 17.1-2 25.5 15-4.3 30.7-6.7 47.1-6.7 94.9 0 171.9 77 171.9 171.9z"/>
						</g>
					</g>
					<g id="&lt;Group&gt;">
						<g id="&lt;Group&gt;">
							<path id="&lt;Compound Path&gt;" fill-rule="evenodd" class="s2" d="m1586.3 708.2l-19-62.3 38.2-15.4c-1.5-19.5 0.5-38.6 5.5-56.9l-34.6-22.4 30.6-57.5 37.9 16.2c12.3-14.4 27.1-26.8 44.1-36.4l-8.6-40.3 62.3-19 15.4 38.2c19.3-1.5 38.6 0.4 56.8 5.5l22.4-34.6 57.5 30.5-16.2 38c14.5 12.3 26.8 27.1 36.4 44.1l40.3-8.7 19.1 62.3-38.3 15.5c1.5 19.3-0.4 38.5-5.5 56.8l34.6 22.4-30.5 57.5-38-16.2c-12.3 14.4-27.1 26.8-44 36.4l8.6 40.3-62.3 19-15.4-38.2c-19.5 1.6-38.6-0.4-56.9-5.5l-22.4 34.6-57.5-30.5 16.2-38c-14.4-12.3-26.8-27.1-36.4-44zm218.9 21.9c62.1-19 97-84.7 78.1-146.8-19-62-84.7-97-146.8-78-62.1 19-97.1 84.7-78.1 146.8 19 62 84.7 97 146.8 78z"/>
						</g>
						<g id="&lt;Group&gt;">
							<path id="&lt;Path&gt;" class="s10" d="m1948.9 601.4l27.2-11-14.3-47-2.8 0.8 13.6 44.5-24.8 10z"/>
						</g>
						<g id="&lt;Group&gt;">
							<path id="&lt;Path&gt;" class="s10" d="m1859.9 802.5l2.8-0.6-8.4-39.2c19.4-9.9 34.3-26.3 34.5-26.5l-2.2-1.9c-0.1 0.2-15.2 16.8-34.6 26.3l-1 0.5z"/>
						</g>
						<g id="&lt;Group&gt;">
							<path id="&lt;Path&gt;" class="s10" d="m1704.6 716.6l1.7-2.4c-75.7-53.1-45.4-134.1-45.1-134.9l-2.6-1c-0.4 0.8-31.5 83.8 46 138.3z"/>
						</g>
						<g id="&lt;Group&gt;">
							<path id="&lt;Path&gt;" class="s10" d="m1606.5 605.1c2.2-17 5.9-31 5.9-31.1l0.3-1.1-12.7-8.2-1.6 2.4 11 7.1c-0.9 3.6-3.9 16-5.7 30.5z"/>
						</g>
						<g id="&lt;Group&gt;">
							<g id="&lt;Group&gt;">
								<g id="&lt;Group&gt;">
									<path id="&lt;Compound Path&gt;" fill-rule="evenodd" class="s1" d="m1765.7 779.9c-28.4 3.5-50.3-3.5-55.4-5.3l-22.5 34.8-59.8-31.8 16.2-38.2c-21.2-17.2-32.9-38.1-35.4-42.9l-40.6 8.7-19.8-64.9 38.5-15.5c-2.8-27.8 3.7-50.3 5.3-55.3l-34.8-22.6 31.8-59.8 38.2 16.3c14.8-19.2 38-32.7 42.9-35.4l-8.6-40.6 64.8-19.8 15.5 38.5c29.8-2.8 50.5 3.5 55.4 5.3l22.5-34.8 59.8 31.8-16.2 38.1c17.2 12.4 32.3 37.7 35.3 43l40.6-8.7 19.8 64.8-38.5 15.6c2.2 27.2-3.8 50.2-5.3 55.3l34.8 22.6-31.8 59.8-38.1-16.3c-15.5 19.4-38.1 32.7-42.9 35.4l8.6 40.6-64.8 19.8zm68.4-23.4l1-0.6c0.2-0.1 26.7-14.2 43.6-35.9l0.7-0.9 37.7 16.1 29.4-55.2-34.5-22.3 0.4-1.1c0.1-0.2 8.1-25.6 5.4-56.3l-0.1-1 38-15.4-18.2-59.8-40.1 8.6-0.6-1c-0.1-0.3-17.2-30.7-35.9-43.6l-0.9-0.6 16.1-37.9-55.2-29.3-22.4 34.5-1-0.4c-0.3-0.1-22.8-8.8-56.3-5.4l-1 0.1-15.4-38.1-59.8 18.3 8.6 40.1-1 0.6c-0.3 0.1-27.4 14.5-43.6 35.9l-0.7 0.9-37.8-16.1-29.3 55.2 34.5 22.3-0.4 1.1c-0.1 0.2-8.8 24.9-5.4 56.3l0.1 1-38.1 15.4 18.3 59.8 40.2-8.6 0.5 1c0.1 0.3 12 24.4 35.9 43.6l0.9 0.7-16.1 37.7 55.2 29.4 22.3-34.5 1.1 0.4c0.3 0.1 24.1 9.6 56.2 5.4l1.1-0.1 15.3 38 59.9-18.2z"/>
								</g>
							</g>
							<g id="&lt;Group&gt;">
								<g id="&lt;Group&gt;">
									<path id="&lt;Compound Path&gt;" fill-rule="evenodd" class="s1" d="m1634.8 613c0-65.7 53.4-119.1 119-119.1 65.7 0 119.1 53.4 119.1 119.1 0 65.6-53.4 119.1-119.1 119.1-65.6 0-119-53.5-119-119.1zm2.8 0c0 64.1 52.2 116.2 116.2 116.2 64.1 0 116.2-52.1 116.2-116.2 0-64.1-52.1-116.2-116.2-116.2-64 0-116.2 52.1-116.2 116.2z"/>
								</g>
							</g>
						</g>
					</g>
				</g>
				<g id="&lt;Clip Group&gt;">
					<g id="&lt;Group&gt;">
						<g id="&lt;Group&gt;">
							<path id="&lt;Path&gt;" class="s1" d="m554.3 2076.5c1 16.7-86.8 35.5-196 42.1-109.3 6.5-148.6-8.1-149.6-24.8-1-16.6 36.7-29 145.9-35.5 109.3-6.6 198.7 1.6 199.7 18.2z"/>
							<g id="&lt;Group&gt;">
								<path id="&lt;Path&gt;" class="s11" d="m485.7 2594.1c32.6 7.1 85 9.5 85 9.5 0 0-81.4-437.5-96.9-561.6-5-39.6-189.4-119.8-203.7 48.8-11.3 133 195.1 350.3 198.9 460.3 0.7 21 10.5 41.7 16.7 43z"/>
								<path id="&lt;Path&gt;" class="s11" d="m472.1 2581c0 0-20.2 149.6 28.7 125.4 52.5-26.1 154.3-2.7 154.3-2.7 0 0-3.6-92.2-44.1-106.9-95.9-34.9-95.8-102.9-95.8-102.9z"/>
							</g>
							<g id="&lt;Group&gt;">
								<path id="&lt;Path&gt;" class="s7" d="m695.7 1519.4c-45.9-34-156.5-43-239.4 46.7-82.9 89.6-185.3 248.8-247.5 526 0 0 174.1-73.8 345.4-14.5 0 0 147-202 181.3-312.3 34.4-110.2 10.9-208.4-39.8-245.9z"/>
							</g>
						</g>
						<g id="&lt;Group&gt;">
							<path id="&lt;Path&gt;" class="s11" d="m273.9 3683.1l129.5 57.1 106.8-153.7-162.2-71.5z"/>
							<g id="&lt;Group&gt;">
								<path id="&lt;Path&gt;" class="s12" d="m445.7 3692.5c0 0-29-25.5-75.2-3.8-46.2 21.7-51.3-12.3-59.2-20.6-7.9-8.4-19.6-16.6-37.8-16.7 0 0-44.6 160.1-34.6 285.4l433.3 6.5c0 0 14.1-43.3-23-64-37.1-20.7-200.6-70.6-221.7-113.4-21.1-42.7 18.2-73.4 18.2-73.4z"/>
								<g id="&lt;Group&gt;">
									<path id="&lt;Path&gt;" class="s1" d="m322.8 3907.3l-7.1-0.1c1.2-79.6-67.9-106.1-70.8-107.2l2.4-6.6c0.8 0.2 76.8 29.2 75.5 113.9z"/>
								</g>
								<path id="&lt;Path&gt;" class="s1" d="m236.8 3897.1c-0.7 15.6 1.8 29.3 2.1 39.7l433.3 6.5c0 0 6.6-20.2-1.1-39.7z"/>
								<g id="&lt;Group&gt;">
									<path id="&lt;Path&gt;" class="s1" d="m465.6 3843.3l-0.8-0.2c-4-0.8-98.2-20.2-107.4-62.3-9.2-41.7 25.3-81.3 26.8-83l5.3 4.7c-0.3 0.4-33.6 38.7-25.2 76.7 7.9 35.8 92 54.9 101.1 56.8l50.2-13 1.8 6.9z"/>
								</g>
								<g id="&lt;Group&gt;">
									<path id="&lt;Path&gt;" class="s1" d="m420.8 3816.7l-2.2-6.7 45.4-14.8 2.2 6.7z"/>
								</g>
								<g id="&lt;Group&gt;">
									<path id="&lt;Path&gt;" class="s1" d="m383.9 3788.9l-2.2-6.7 45.5-14.8 2.2 6.7z"/>
								</g>
							</g>
						</g>
						<path id="&lt;Path&gt;" class="s5" d="m473.6 3058.5c-65.1 68.3-93.3 75.4-185.3 275.9-26.1 56.8-126.8 528.8-126.8 528.8 31.4 48.3 291.6-34.4 436.4-5.5 0 0 195.2-482.1 195.2-818.5 0-91.7-205.8-100-319.5 19.3z"/>
						<path id="&lt;Path&gt;" class="s5" d="m379.5 2501.8c-18.5 77.6-27.3 592.3 12.9 674.3 28.7 58.5 351.3 203.5 381.2 40.6 26.3-143.1 104.2-621.2 97.5-706.3-6.6-82.2-436.2-241.6-491.6-8.6z"/>
						<g id="&lt;Group&gt;">
							<path id="&lt;Path&gt;" class="s1" d="m361.1 3194.6l-5.6-4.2c60-79.6 167.1-43.9 168.1-43.5l-2.3 6.7c-1-0.4-103.3-34.4-160.2 41z"/>
						</g>
						<path id="&lt;Path&gt;" class="s1" d="m883.8 2340.9c-3.7-54.7-193.7-145.7-337.9-132.5l-41.7 506.7c12.5 14.6 52.7 75.2 60.3 91.7 57.2 125.5 109.2 212.9 238.3 247.6 36.1-248.7 85.3-648.5 81-713.5z"/>
						<g id="&lt;Group&gt;">
							<path id="&lt;Path&gt;" class="s11" d="m975.5 3682.2l130.2 55.6 105-155-163-69.6z"/>
							<g id="&lt;Group&gt;">
								<path id="&lt;Path&gt;" class="s12" d="m1147.4 3689.6c0 0-29.3-25.2-75.2-2.9-45.9 22.2-51.5-11.7-59.5-20-8-8.3-19.7-16.3-38-16.2 0 0-42.7 160.6-31.2 285.7l433.4 1.5c0 0 13.5-43.5-23.8-63.7-37.4-20.2-201.4-68.3-223-110.8-21.7-42.5 17.3-73.6 17.3-73.6z"/>
								<g id="&lt;Group&gt;">
									<path id="&lt;Path&gt;" class="s1" d="m1027 3905.8h-7.1c0.3-79.6-69.1-105.3-72.1-106.4l2.4-6.6c0.8 0.2 77.1 28.3 76.8 113z"/>
								</g>
								<path id="&lt;Path&gt;" class="s1" d="m940.9 3896.6c-0.5 15.6 2.2 29.3 2.6 39.6l433.4 1.5c0 0 6.3-20.3-1.7-39.6z"/>
								<g id="&lt;Group&gt;">
									<path id="&lt;Path&gt;" class="s1" d="m1169 3840.1l-0.8-0.1c-4-0.8-98.3-19.1-108.1-61.1-9.6-41.6 24.4-81.6 25.9-83.3l5.3 4.6c-0.3 0.4-33.1 39.1-24.3 77.1 8.3 35.7 92.7 53.7 101.8 55.6l50-13.6 1.9 6.8z"/>
								</g>
								<g id="&lt;Group&gt;">
									<path id="&lt;Path&gt;" class="s1" d="m1123.9 3814.1l-2.2-6.7 45.2-15.4 2.3 6.7z"/>
								</g>
								<g id="&lt;Group&gt;">
									<path id="&lt;Path&gt;" class="s1" d="m1086.7 3786.7l-2.2-6.7 45.3-15.3 2.2 6.7z"/>
								</g>
							</g>
						</g>
						<path id="&lt;Path&gt;" class="s5" d="m890.3 3135.3c-31.7 88.9-186.1 501.4-60 784.9 48.3 31.4 275.6-50.9 419.8-74.1 0 0 61.2-530.4-64.9-921.4-28.2-87.2-239.5 55.5-294.9 210.6z"/>
						<path id="&lt;Path&gt;" class="s5" d="m526.9 2436.6c11.7 78.9 262.8 728.4 330.7 789.6 48.3 43.6 227 53.9 318-84.5 90.9-138.4-151.4-803.7-189.3-880.2-36.7-73.9-494.8-61.7-459.4 175.1z"/>
						<path id="&lt;Path&gt;" class="s7" d="m965.6 1493.7c113.1 68.9 156.9 238.9 165.1 531 8.1 292 60.2 482.2 28.1 558 0 0-337.2 307.1-828.3 111.2 0 0 15-83.6 48.4-445.6 33.5-362 32.6-460.2 80.7-601.5 48.2-141.2 276.9-270.1 338.6-236.1 62 34.1 80.2 29.9 167.4 83z"/>
						<g id="&lt;Group&gt;">
							<path id="&lt;Path&gt;" class="s11" d="m1270 1641c0 0 75.5 44 136.8 82.2 12.8-15.9 25.9-31.9 39-47.9 35.7-48.8 142.1-211 142.7-211.6 24.4-53.9-16-68.3-8.6-90.6 4.9-15 50.1-82 69.1-94.3q0.2-0.4 0.5-0.6c24.3-21.4 94.2-56.4 116.8-71 10-6.5 9.1 8-4.6 27.1-16.5 23-47.7 48.4-69.2 62 6.8 9.4 13.1 19.8 27.7 29.4 17.7 11.6 14.9 33.3 24.1 50.2 9.2 16.9-6.4 41.1-27.7 59-21.4 18-49.8 18.1-53.1 67 0 0-83.7 358.1-127.1 445-27.9 55.7-63.7 74.6-98.1 71.2-87 0.4-242.9-50.9-352.9-134.1-116.6-88.2 25.1-323 184.6-243z"/>
							<path id="&lt;Path&gt;" class="s7" d="m814.4 1536.6c-30.5 36.5-52.9 90.4 12.3 185.8 65.1 95.4 245.4 222.8 401.3 292.6 0 0 192.3-177.1 136.7-351.9 0 0-266.7-129.9-356.5-163.9-89.7-34.1-160.2-2.7-193.8 37.4z"/>
							<g id="&lt;Group&gt;">
								<path id="&lt;Path&gt;" class="s4" d="m1155.5 1845.6c-1 0.6-95.6 55.5-186-24.5l4.7-5.3c86.5 76.5 176.7 24.3 177.6 23.7z"/>
							</g>
							<g id="&lt;Group&gt;">
								<path id="&lt;Path&gt;" class="s4" d="m1306.2 1931.9c-35.2 52.4-72.7 86.7-73.3 87.1l-1.3 1.3-1.8-0.4c-2.3-0.5-225.7-51.1-351.1-191.1l5.2-4.7c118 131.6 324.2 183.3 345.6 188.4 10-9.4 73.1-70.7 107.5-151.3l6.5 2.8c-10.5 24.7-23.8 47.7-37.3 67.9z"/>
							</g>
						</g>
						<g id="&lt;Group&gt;">
							<path id="&lt;Path&gt;" class="s1" d="m904.4 3138.6c-42.1-47.7-113.5-28.5-114.3-28.3l-2.9 0.9-122.4-277 6.5-2.9 119.9 271.5c14.6-3.2 78.5-14.2 118.5 31.1z"/>
						</g>
						<g id="&lt;Group&gt;">
							<path id="&lt;Path&gt;" class="s4" d="m647.8 2425.2c-86.1 0-139.4-47.1-140.2-47.8l4.8-5.3c1.2 1.1 119.7 105.5 289.1-3.9l3.8 5.9c-59.5 38.4-112.9 51.1-157.5 51.1z"/>
						</g>
						<g id="&lt;Group&gt;">
							<path id="&lt;Path&gt;" class="s1" d="m790.2 3796.5c-0.5-1.3-40.8-135.8 26.9-425.2l6.9 1.7c-67.2 287.1-27.5 420.1-27.1 421.4z"/>
						</g>
						<path id="&lt;Path&gt;" class="s1" d="m850.8 1405.6c0 0-24.8-26.6-53.6-78.9l49.1 12z"/>
						<path id="&lt;Path&gt;" class="s11" d="m934 1200.4c-7-55.8-4.5-141.1-70.2-129.4-16.8 3-94.7 11.2-111.9 19.7-41 20.2-26.4 83.2-37.2 140.4-3.2 16.9-1.7 49.8 4.7 64.8l-16.7-1.6-4.1 136.5c0 0 89 59.9 154.5 8.5l-5-73.1c15.3 3.8 27.9 5.3 34.8 3.9 47.7-10 58.9-107.2 51.1-169.7z"/>
						<path id="&lt;Path&gt;" class="s1" d="m906.8 1100.9c-6 3-24.5 10.5-24.5 10.5 0 0-3.8 47.3-10.4 65-6.7 17.7 17.7 79 50.5 84.2 32.8 5.1 13.1 40.6 10.6 55.7-3.6 21.7 17 44.1-23.4 59.6-26.9 10.3-95.5-3.3-78.8-46.8 16.7-43.4 46-97.8 14.4-144.2-31.6-46.5 6.6 57.6-51.3 96.7-16.1 10.9-28.8 19.8-38.9 27.2-16 11.6-37.1 10.8-53.7 0.1-1.9-1.2-3.9-2.2-6-2.9-16.9-5.6-66.2-62.3-69.8-137-3.6-74.7 29.8-100.9 95.7-115.7 66-14.9 41.7-42.2 82.8-51 41.1-8.8 92.3-59.7 92.3-59.7 0 0 65.4 131.7 10.5 158.3z"/>
						<path id="&lt;Path&gt;" class="s11" d="m776.9 1227.9c12.1 23.8 38.4 34.6 58.7 24.2 20.3-10.3 27-37.9 14.9-61.7-12.1-23.7-38.3-34.5-58.6-24.1-20.4 10.3-27 37.9-15 61.6z"/>
						<g id="&lt;Group&gt;">
							<path id="&lt;Path&gt;" class="s1" d="m837.9 1234.4c-0.9 1.2-2 2.1-3.3 2.8-2.7 1.5-5.8 1.6-8.9 0.3-6.6-2.7-7-7.8-7.3-12-0.3-4-0.6-7.8-5.5-11.9-3.9-3.3-8.2-4.5-11.9-5.5-6.4-1.8-13.7-3.9-12.3-16.6 0.5-4.1 2.4-7.6 5.7-10.2 9.5-7.4 27.7-5.2 28.5-5.1l-0.9 7.1c-4.5-0.6-17.3-1-23.2 3.6-1.8 1.4-2.8 3.2-3 5.4-0.8 6.7 0.9 7.2 7.1 9 4.2 1.2 9.5 2.6 14.5 6.9 7.3 6 7.8 12.2 8.1 16.8 0.3 3.9 0.5 5 2.9 6 1.4 0.6 2.2 0.3 2.8 0 2.7-1.4 4.5-7.2 5-9.7l7 1.3c-0.2 0.9-1.5 7.4-5.3 11.8z"/>
						</g>
						<g id="&lt;Group&gt;">
							<path id="&lt;Path&gt;" class="s4" d="m404.7 1988.4l-5.9-0.2c3.8-188.6 60.6-349.2 61.2-350.8l5.6 2c-0.6 1.6-57.1 161.3-60.9 349z"/>
						</g>
					</g>
				</g>
				<g id="&lt;Group&gt;">
					<path id="&lt;Path&gt;" class="s13" d="m2423.7 2526.8h-2163v-14.6h2163z"/>
				</g>
			</g>
		</g>
	</g>
</svg>